<svg width="217" height="15" viewBox="0 0 217 15" fill="none" xmlns="http://www.w3.org/2000/svg">
<path d="M9.50511 11.5002H4.69987L3.73039 14.6404H0.0843025L4.97385 0.730525H9.31543L14.1839 14.6404H10.4535L9.50511 11.5002ZM8.74639 9.03432L7.73476 5.70437L7.12356 3.51251H7.08141L6.51237 5.6833L5.45859 9.03432H8.74639ZM31.9034 14.6404H28.6999V8.25453L28.8053 3.97617H28.7631L25.3278 14.6404H22.3983L18.963 3.97617H18.9208L19.0262 8.25453V14.6404H15.8016V0.730525H20.9651L23.157 7.81194L23.9368 10.7625H23.979L24.7798 7.83301L26.9506 0.730525H31.9034V14.6404ZM42.9503 11.5002H38.1451L37.1756 14.6404H33.5295L38.4191 0.730525H42.7606L47.6291 14.6404H43.8987L42.9503 11.5002ZM42.1916 9.03432L41.18 5.70437L40.5688 3.51251H40.5266L39.9576 5.6833L38.9038 9.03432H42.1916ZM60.4169 11.9006V14.6404H48.4881V12.0271L56.265 3.47036H48.6356V0.730525H60.164V3.3439L52.4293 11.9006H60.4169ZM66.2293 14.6404H62.6043V0.730525H66.2293V14.6404ZM81.854 14.6404H77.8285L73.508 7.11644L72.4542 5.00888H72.4332L72.5175 7.62226V14.6404H69.314V0.730525H73.3394L77.6599 8.25453L78.7137 10.3621H78.7348L78.6505 7.74871V0.730525H81.854V14.6404ZM97.4122 7.11644V14.6404H94.8831L94.7778 12.9965C93.9769 14.233 92.6491 14.8512 90.7945 14.8512C89.5299 14.8512 88.4059 14.5772 87.4224 14.0292C86.4529 13.4672 85.6942 12.6523 85.1462 11.5845C84.5982 10.5026 84.3243 9.20995 84.3243 7.70656C84.3243 6.21721 84.6053 4.93863 85.1673 3.87079C85.7293 2.78891 86.5302 1.95994 87.5699 1.38387C88.6096 0.807803 89.839 0.519769 91.2581 0.519769C92.8458 0.519769 94.1244 0.800777 95.0939 1.36279C96.0634 1.92481 96.8291 2.83106 97.3911 4.08155L94.0401 5.40932C93.8715 4.72084 93.5554 4.208 93.0917 3.87079C92.6281 3.53358 92.052 3.36498 91.3635 3.36498C90.2957 3.36498 89.4737 3.73029 88.8977 4.46091C88.3356 5.19153 88.0546 6.26639 88.0546 7.68548C88.0546 10.608 89.1927 12.0692 91.4689 12.0692C92.326 12.0692 93.0144 11.8725 93.5343 11.4791C94.0682 11.0857 94.3352 10.5166 94.3352 9.77197V9.56121H90.8788V7.11644H97.4122ZM122.298 14.6404H119.095V8.25453L119.2 3.97617H119.158L115.722 14.6404H112.793L109.358 3.97617H109.316L109.421 8.25453V14.6404H106.196V0.730525H111.36L113.552 7.81194L114.332 10.7625H114.374L115.175 7.83301L117.345 0.730525H122.298V14.6404ZM131.617 0.519769C133.022 0.519769 134.23 0.807803 135.242 1.38387C136.268 1.94589 137.054 2.76784 137.602 3.84972C138.15 4.91755 138.424 6.19614 138.424 7.68548C138.424 9.17483 138.15 10.4604 137.602 11.5423C137.054 12.6102 136.268 13.4321 135.242 14.0082C134.23 14.5702 133.022 14.8512 131.617 14.8512C130.212 14.8512 128.996 14.5702 127.971 14.0082C126.945 13.4321 126.158 12.6102 125.61 11.5423C125.062 10.4604 124.788 9.17483 124.788 7.68548C124.788 6.19614 125.062 4.91755 125.61 3.84972C126.158 2.76784 126.945 1.94589 127.971 1.38387C128.996 0.807803 130.212 0.519769 131.617 0.519769ZM131.617 3.36498C130.605 3.36498 129.832 3.73029 129.299 4.46091C128.765 5.19153 128.498 6.26639 128.498 7.68548C128.498 9.10458 128.765 10.1794 129.299 10.9101C129.832 11.6407 130.605 12.006 131.617 12.006C132.628 12.006 133.394 11.6407 133.914 10.9101C134.448 10.1794 134.715 9.10458 134.715 7.68548C134.715 6.26639 134.448 5.19153 133.914 4.46091C133.394 3.73029 132.628 3.36498 131.617 3.36498ZM153.099 8.9711C153.099 10.9241 152.579 12.3924 151.54 13.3759C150.5 14.3594 148.947 14.8512 146.882 14.8512C144.831 14.8512 143.278 14.3594 142.224 13.3759C141.185 12.3924 140.665 10.9241 140.665 8.9711V0.730525H144.311V9.03432C144.311 10.0319 144.522 10.7766 144.943 11.2683C145.365 11.7601 146.011 12.006 146.882 12.006C148.624 12.006 149.495 11.0154 149.495 9.03432V0.730525H153.099V8.9711ZM168.482 14.6404H164.457L160.136 7.11644L159.082 5.00888H159.061L159.146 7.62226V14.6404H155.942V0.730525H159.968L164.288 8.25453L165.342 10.3621H165.363L165.279 7.74871V0.730525H168.482V14.6404ZM183.261 3.53358H178.729V14.6404H175.104V3.53358H170.552V0.730525H183.261V3.53358ZM191.426 11.5002H186.621L185.652 14.6404H182.006L186.895 0.730525H191.237L196.105 14.6404H192.375L191.426 11.5002ZM190.668 9.03432L189.656 5.70437L189.045 3.51251H189.003L188.434 5.6833L187.38 9.03432H190.668ZM201.348 14.6404H197.723V0.730525H201.348V14.6404ZM216.973 14.6404H212.947L208.627 7.11644L207.573 5.00888H207.552L207.636 7.62226V14.6404H204.433V0.730525H208.458L212.779 8.25453L213.832 10.3621H213.853L213.769 7.74871V0.730525H216.973V14.6404Z" fill="#143774"/>
</svg>
